<svg xmlns="http://www.w3.org/2000/svg" width="16" height="16"><path d="M13.391 1.991h-1.396V4.97h-9V1.991H1.563c-.323 0-.553.318-.553.636v12.741c0 .364.276.637.599.637h11.782c.323 0 .601-.272.601-.637V2.627c-.002-.364-.279-.636-.601-.636zM12 14H3v-1h9v1zm0-3H3v-1h9v1zm0-3H3V7h9v1z"/><path d="M10.998 1.922h-.986V.795c0-.489-.463-.8-.972-.8H5.965c-.51 0-.973.311-.973.8v1.127h-.985v2.073h6.991V1.922zM7.525 3.021c-.556 0-1.019-.538-1.019-1.071 0-.534.463-.978 1.019-.978s1.019.444 1.019.978c0 .623-.463 1.071-1.019 1.071z"/></svg>