<svg xmlns="http://www.w3.org/2000/svg" width="16" height="16"><path fill-rule="evenodd" clip-rule="evenodd" d="M13.287 15.99H1.713a.725.725 0 01-.724-.727V.737c0-.402.324-.727.724-.727H9.669l4.341 4.358v10.896a.724.724 0 01-.723.726zM6.851 8.129c-.099.21-.183.41-.252.6h-.02a3.442 3.442 0 00-.237-.577L5.2 6.014H3.212l2.245 3.491L3 13h1.953l1.379-2.305c.092-.205.151-.361.178-.469h.02c.053.22.104.372.153.456L8.057 13h1.938L7.622 9.478l2.313-3.464H8.111l-1.26 2.115zM9.018.991v4H13l-3.982-4z"/></svg>