<svg xmlns="http://www.w3.org/2000/svg" width="11" height="11"><path d="M5.5 11a5.5 5.5 0 110-11 5.5 5.5 0 110 11zM2.047 2.646A4.463 4.463 0 001 5.5 4.5 4.5 0 005.5 10a4.458 4.458 0 002.869-1.06c-.1-.018-.204-.039-.282-.117L5.144 5.88c-.011-.011-.007-.028-.017-.04-.012-.01-.029-.005-.04-.017L2.144 2.88c-.065-.065-.074-.152-.097-.234zM5.5 1a4.46 4.46 0 00-2.854 1.047c.082.024.169.033.234.097l2.943 2.943c.011.012.007.029.017.04.012.01.029.006.04.017l2.944 2.943c.077.079.097.182.116.283A4.46 4.46 0 0010 5.5 4.5 4.5 0 005.5 1z" fill-rule="evenodd" clip-rule="evenodd"/></svg>