<svg xmlns="http://www.w3.org/2000/svg" width="16" height="16"><path fill-rule="evenodd" clip-rule="evenodd" d="M13.287 15.99H1.713a.725.725 0 01-.724-.727V.737c0-.402.324-.727.724-.727H9.669l4.341 4.358v10.896a.724.724 0 01-.723.726zM8.056 8.717c-.384-.435-.768-1.088-1.024-1.887v-.072c.256-.944.448-2.105 0-2.613C6.904 4.072 6.776 4 6.648 4H6.52c-.256 0-.885.29-.95.58-.256 1.016-.128 1.524.129 2.396-.193.653.053 1.378-.267 2.105-.256.508-.448.592-.64.955-.256.145-.448.291-.576.363-.768.507-1.215.739-1.216 1.875.025.143 0 .218.064.363v.073l.32.218c.064.072.128.072.256.072.512 0 1.152-.48 1.92-2.004.064-.073.064-.073.128-.073.64-.291 1.472-.436 2.56-.581.64.363 1.408.402 1.92.402.256 0 .448-.072.576-.145.128-.146.192-.503.256-.576 0-.145 0-.291-.064-.436-.192-.363-.704-.508-1.472-.508-.256 0-.512.072-.832.072-.256-.143-.384-.288-.576-.434zM9.018.991v4H13l-3.982-4zm1.534 8.96v.073h-.192c-.32 0-.768-.145-1.216-.363v-.073h.128c.896 0 1.152.218 1.216.291 0 .072.064.072.064.072zm-4.992.218c.128-.291.256-.508.384-.799.256-.653.512-1.233.64-1.741.256.653.64 1.234.96 1.669a.905.905 0 00.256.218c-.512.072-1.28.29-2.112.653H5.56zm1.088-4.863c0 .218-.064.363-.128.653-.128-.653-.128-1.162 0-1.597.064 0 .064-.073.064-.073l.064.073v.072c.064.073.064.363 0 .726v.146zm-3.2 7.041c.064-.218.384-.726.832-1.162.064-.072.192-.145.32-.218-.384.871-.768 1.307-1.152 1.38z"/></svg>