<svg xmlns="http://www.w3.org/2000/svg" width="5.978" height="10.985"><path d="M5.832 5.904L3.85 7.877c-.007.008-.01.019-.018.027l-2.943 2.93c-.203.202-.533.202-.736 0s-.203-.53 0-.733l.14-.139a.48.48 0 01-.285-.438V1.493c0-.204.127-.377.305-.448L.152.885a.517.517 0 010-.733.523.523 0 01.736 0l2.943 2.931c.009.007.011.018.019.026l1.982 1.973a.508.508 0 01.144.411.513.513 0 01-.144.411zm-3.68-3.019c-.008-.008-.01-.019-.018-.026L1.008 1.737v7.512l1.127-1.122c.007-.008.009-.019.017-.026l2.62-2.608-2.62-2.608z" fill-rule="evenodd" clip-rule="evenodd"/></svg>